# xmcd
#
# Track frame offsets:
#	150
#	2542
#	13830
#	23785
#	33084
#	50447
#	58054
#	63764
#	77182
#	94889
#	102060
#	119865
#	132128
#	147243
#	157568
#	168423
#	188284
#	198011
#	211788
#	225776
#	236916
#	239243
#	247988
#	253010
#	275723
#	285126
#	298785
#
# Disc length: 4306
#
# Revision: 2
# Processed by: cddbd v1.5.1PL0 Copyright (c) Steve Scherf et al.
# Submitted via: audiograbber 1.81.03
# Normalized: r1:DSETVAR2
#
DISCID=6710d01b
DTITLE=Various Artist - Ken and Kitty - A Recurring Nightmare
DYEAR=2002
DGENRE=Comedy
TTITLE0=Ken and Kitty - Ken and (insert your name here)
TTITLE1=Shennendoah - The Booger Song
TTITLE2=Jim Coonrod - My List
TTITLE3=Ken and Kitty - Where I Come From It's Corn Bread and Chicken
TTITLE4=Neil Scott Johnson Band - Arroz Con Pollo
TTITLE5=Carl Cressman - Fuzz on the Carpet
TTITLE6=Ken and Kitty - A St. Patty's Message For Ye
TTITLE7=Steve Ritter - The Scottsman
TTITLE8=Seamus Kennedy - The Scottsman
TTITLE9=Tony Ruggiero - The Great Deli Singer
TTITLE10=Kip Hartman - Man I Feel Like A Winner
TTITLE11=Ken and Kitty - Help Me Rhonda
TTITLE12=Mark Wills - Places I've Never Been
TTITLE13=Ken and Kitty - Keith Urban Interview
TTITLE14=Seamus Kennedy - The Yodeling Song
TTITLE15=Quarry Dogs - 3 More Days
TTITLE16=Alan Scott Band - Spooky 1998
TTITLE17=Ken and Kitty - Bob The Exterminator
TTITLE18=Ken and Kitty - The Shopping Song
TTITLE19=Neil Scott Johnson Band - It's The Beer (Live)
TTITLE20=Ken and Kitty - Jingle Bell Juice Harp
TTITLE21=Mark Miklos - Cat Country Christmas
TTITLE22=David Zellers "Flipper" - A Christmas Poem
TTITLE23=Lou Franco - O Holy Night
TTITLE24=Ken and Kitty - Captain Eggnog
TTITLE25=Ken and Kitty - Twas the Night Before Christmas
TTITLE26=Ken and Kitty - Cat Country Christmas Carol 2001
EXTD=
EXTT0=Ken and Kitty are a syndicated radio morning show in Northeast PA 
EXTT1=
EXTT2=
EXTT3=
EXTT4=
EXTT5=
EXTT6=
EXTT7=
EXTT8=
EXTT9=
EXTT10=
EXTT11=
EXTT12=
EXTT13=
EXTT14=
EXTT15=
EXTT16=
EXTT17=
EXTT18=
EXTT19=
EXTT20=
EXTT21=
EXTT22=
EXTT23=Lou Franco is the former lead guitar player for "Pretty Poison" who had the top 10 hit "Catch Me I'm Falling"
EXTT24=
EXTT25=Various Country Music Artists
EXTT26=Cat Country 96 Listeners Montage
PLAYORDER=
